<?xml version="1.0" encoding="UTF-8"?>
<svg version="1.1" viewBox="0 0 30 30" xmlns="http://www.w3.org/2000/svg" xmlns:cc="http://creativecommons.org/ns#" xmlns:dc="http://purl.org/dc/elements/1.1/" xmlns:rdf="http://www.w3.org/1999/02/22-rdf-syntax-ns#">
<metadata>
<rdf:RDF>
<cc:Work rdf:about="">
<dc:format>image/svg+xml</dc:format>
<dc:type rdf:resource="http://purl.org/dc/dcmitype/StillImage"/>
<dc:title></dc:title>
</cc:Work>
</rdf:RDF>
</metadata>
<g transform="translate(0 -289.06)" stroke="#f00" stroke-width=".004">
<path d="m21.609 291.91a2.5103 2.5103 0 0 0-2.5103 2.5103 2.5103 2.5103 0 0 0 2.5103 2.5103 2.5103 2.5103 0 0 0 2.5103-2.5103 2.5103 2.5103 0 0 0-2.5103-2.5103zm2.2456 5.5415-2.1916 3.4284-2.2211-3.4259c-2.0319 0.86222-3.3753 2.829-3.4394 5.0353 1.3743 1.571 3.3892 2.5679 5.6421 2.5679 2.2519 0 4.2667-0.99558 5.6409-2.5655-0.06074-2.2061-1.4008-4.1747-3.4309-5.0402z" opacity=".91"/>
<path d="m14.97 304.9a2.1301 2.1301 0 0 0-2.1301 2.1301 2.1301 2.1301 0 0 0 2.1301 2.1301 2.1301 2.1301 0 0 0 2.1301-2.1301 2.1301 2.1301 0 0 0-2.1301-2.1301zm1.9054 4.7022-1.8597 2.9091-1.8846-2.907c-1.7241 0.73163-2.864 2.4006-2.9185 4.2727 1.1661 1.3331 2.8759 2.179 4.7875 2.179 1.9108 0 3.6204-0.84479 4.7864-2.1769-0.05153-1.8719-1.1886-3.5424-2.9112-4.2768z" opacity=".91"/>
<path d="m8.6086 291.91a2.5103 2.5103 0 0 0-2.5103 2.5103 2.5103 2.5103 0 0 0 2.5103 2.5103 2.5103 2.5103 0 0 0 2.5103-2.5103 2.5103 2.5103 0 0 0-2.5103-2.5103zm2.2456 5.5415-2.1916 3.4284-2.2211-3.4259c-2.0319 0.86222-3.3753 2.829-3.4394 5.0353 1.3743 1.571 3.3892 2.5679 5.6421 2.5679 2.2519 0 4.2667-0.99557 5.6409-2.5655-0.06074-2.206-1.4008-4.1747-3.4309-5.0402z" opacity=".91"/>
</g>
</svg>
